<svg xmlns="http://www.w3.org/2000/svg" aria-hidden="true" style="position:absolute;width:0;height:0;overflow:hidden"><defs><symbol id="icon-book" viewBox="0 0 30 32"><path d="M29.392 10.57c-.643-.348-1.314-.637-2.012-.883v17.419c-1.561-.594-3.162-.898-4.791-.898-2.601 0-5.175.782-7.529 2.288v-17.52c-2.218-1.347-4.778-2.143-7.529-2.143-2.45 0-4.764.637-6.804 1.738-.452.232-.726.738-.726 1.274v17.491c0 .84.643 1.433 1.369 1.433.219 0 .438-.058.657-.174 1.656-.912 3.518-1.491 5.503-1.491 2.834 0 5.449 1.187 7.529 2.896 2.081-1.709 4.696-2.896 7.529-2.896 1.985 0 3.847.579 5.503 1.506.219.116.438.174.657.174.712 0 1.369-.594 1.369-1.433V11.845c0-.536-.274-1.043-.726-1.274zM12.321 27.106c-1.561-.594-3.162-.898-4.791-.898s-3.231.304-4.791.898V12.757c1.52-.68 3.121-1.028 4.791-1.028 1.643 0 3.272.362 4.791 1.043v14.335zM24.642 3.765l-6.845 7.24v13.756l6.845-6.516V3.765z"/></symbol><symbol id="icon-burger-menu" viewBox="0 0 32 32"><path stroke-linecap="round" stroke-linejoin="round" stroke-width="2.2857" d="M22.667 13.333H4M28 8H4m24 10.667H4M22.667 24H4"/></symbol><symbol id="icon-close" viewBox="0 0 32 32"><path stroke-linecap="round" stroke-linejoin="round" stroke-width="3.4286" d="M24 8 8 24M8 8l16 16"/></symbol><symbol id="icon-arrow-right" viewBox="0 0 32 32"><path stroke-linecap="round" stroke-linejoin="round" stroke-width="3.2" d="M5.333 16h21.333m0 0-8-8m8 8-8 8"/></symbol><symbol id="icon-switcher-circle" viewBox="0 0 32 32"><path d="M14.769 24.615c6.118 0 11.077-4.959 11.077-11.077S20.887 2.461 14.769 2.461 3.692 7.42 3.692 13.538s4.959 11.077 11.077 11.077z"/></symbol><symbol id="icon-angle-left" viewBox="0 0 32 32"><path d="M17.868 16.945c.242-.242.392-.576.392-.945s-.15-.704-.392-.945l-6.119-6.109c-.264-.244-.428-.592-.428-.979 0-.737.597-1.334 1.334-1.334.384 0 .729.162.973.421l.001.001 6.121 6.119c.723.724 1.169 1.723 1.169 2.826s-.447 2.103-1.169 2.826l-6.121 6.121c-.241.239-.573.387-.94.387-.737 0-1.334-.597-1.334-1.334 0-.37.151-.705.394-.947l6.119-6.106z"/></symbol><symbol id="icon-angle-right" viewBox="0 0 32 32"><path d="M14.132 16.945c-.243-.242-.393-.576-.393-.945s.15-.704.393-.945l6.119-6.109c.243-.242.393-.576.393-.945 0-.736-.597-1.333-1.333-1.333-.367 0-.699.148-.94.388l-6.121 6.118c-.723.724-1.169 1.723-1.169 2.826s.447 2.103 1.169 2.826l6.121 6.121c.241.239.573.387.94.387.737 0 1.334-.597 1.334-1.334 0-.37-.151-.705-.394-.947l-6.119-6.106z"/></symbol><symbol id="icon-logo" viewBox="0 0 32 32"><path d="m0 0 16.343 16.172L32 32V0H0z"/><path d="M4.457 4.228 16.4 16.057l11.257 11.485h-23.2V4.227z"/><path d="M27.733 27.619 15.789 15.79 4.533 4.305h23.2V27.62z"/><path d="m9.256 9.028 13.6 13.601h-13.6v-13.6z"/><path d="m9.256 9.028 13.6 13.601v-13.6h-13.6z"/></symbol><symbol id="icon-mail" viewBox="0 0 32 32"><path stroke-linecap="round" stroke-linejoin="round" stroke-width="2.2857" d="m28.666 24-8.857-8m-7.619 0-8.857 8M2.667 9.333l10.887 7.621c.882.617 1.322.926 1.802 1.045.423.106.866.106 1.29 0 .479-.12.92-.428 1.802-1.045l10.887-7.621M9.067 26.667h13.867c2.24 0 3.36 0 4.216-.436.753-.384 1.365-.995 1.748-1.748.436-.856.436-1.976.436-4.216v-8.533c0-2.24 0-3.36-.436-4.216-.383-.753-.995-1.365-1.748-1.748-.856-.436-1.976-.436-4.216-.436H9.067c-2.24 0-3.36 0-4.216.436-.753.383-1.365.995-1.748 1.748-.436.856-.436 1.976-.436 4.216v8.533c0 2.24 0 3.36.436 4.216.384.753.995 1.365 1.748 1.748.856.436 1.976.436 4.216.436z"/></symbol><symbol id="icon-angle-up" viewBox="0 0 32 32"><path d="M4.5 19.6 15.7 8.367c.133-.133.278-.228.433-.283s.322-.084.5-.084.345.028.5.084.3.149.433.283L28.799 19.6c.311.311.467.7.467 1.167s-.167.867-.5 1.2-.722.5-1.167.5c-.445 0-.833-.167-1.167-.5l-9.8-9.8-9.8 9.8c-.311.311-.694.467-1.149.467s-.851-.167-1.184-.5-.5-.722-.5-1.167c0-.444.167-.833.5-1.167z"/></symbol><symbol id="icon-switcher" viewBox="0 0 64 32"><path d="M0 16C0 7.163 7.163 0 16 0h32c8.837 0 16 7.163 16 16s-7.163 16-16 16H16C7.163 32 0 24.837 0 16z"/></symbol><symbol id="icon-user" viewBox="0 0 32 32"><path d="M5.333 29.333c0-2.829 1.124-5.542 3.124-7.542s4.713-3.124 7.542-3.124c2.829 0 5.542 1.124 7.542 3.124s3.124 4.713 3.124 7.542H5.332zm10.667-12c-4.42 0-8-3.58-8-8s3.58-8 8-8 8 3.58 8 8-3.58 8-8 8z"/></symbol><symbol id="icon-trash" viewBox="0 0 32 32"><path stroke-linecap="round" stroke-linejoin="round" stroke-width="2.9091" d="M12 4h8M4 8h24m-2.667 0-.935 14.026c-.14 2.104-.21 3.157-.665 3.954-.4.702-1.004 1.267-1.731 1.619-.826.4-1.881.4-3.99.4h-4.025c-2.109 0-3.163 0-3.99-.4-.727-.353-1.331-.917-1.731-1.619-.455-.798-.525-1.85-.665-3.954L6.666 8m6.667 6v6.667M18.667 14v6.667"/></symbol><symbol id="icon-basket" viewBox="0 0 32 32"><path d="M25.333 9.333h-4V8c0-2.946-2.388-5.334-5.334-5.334S10.665 5.054 10.665 8v1.333h-4c-.736 0-1.333.597-1.333 1.333V25.334c0 2.209 1.791 4 4 4h13.333c2.209 0 4-1.791 4-4V10.668c0-.736-.597-1.334-1.333-1.334zM13.333 8c-.001-.019-.001-.042-.001-.065 0-1.473 1.194-2.667 2.667-2.667s2.667 1.194 2.667 2.667c0 .023 0 .046-.001.069v-.003 1.333h-5.333V8.001zM24 25.333v.002c0 .736-.597 1.333-1.333 1.333H9.332c-.736 0-1.333-.597-1.333-1.333V12h2.666v1.333c0 .737.597 1.334 1.334 1.334s1.334-.597 1.334-1.334V12h5.333v1.333c0 .737.597 1.334 1.334 1.334s1.334-.597 1.334-1.334V12h2.667v13.333z"/></symbol><symbol id="icon-angle-down" viewBox="0 0 32 32"><path d="M15.053 17.867c.124.125.271.224.434.292s.337.103.513.103.35-.035.513-.103c.162-.068.31-.167.434-.292l6.107-6.12c.124-.125.271-.224.434-.292s.337-.103.513-.103.35.035.513.103.31.167.434.292c.248.25.388.588.388.94s-.139.69-.388.94l-6.12 6.12c-.75.749-1.767 1.17-2.827 1.17s-2.077-.421-2.827-1.17l-6.12-6.12c-.246-.248-.385-.584-.387-.933-.001-.175.033-.349.099-.512s.164-.31.288-.435c.124-.125.271-.224.434-.292s.337-.103.513-.103.35.035.513.103c.162.068.31.167.434.292l6.107 6.12z"/></symbol></defs></svg>