<svg aria-hidden="true" style="position: absolute; width: 0; height: 0; overflow: hidden;" version="1.1" xmlns="http://www.w3.org/2000/svg" xmlns:xlink="http://www.w3.org/1999/xlink">
<defs>
<!-- icon trash -->
<symbol id="icon-trash" viewBox="0 0 32 32">
<path stroke-linejoin="round" stroke-linecap="round" stroke-miterlimit="4" stroke-width="2.9091" d="M12 4h8M4 8h24M25.333 8l-0.935 14.026c-0.14 2.104-0.21 3.157-0.665 3.954-0.4 0.702-1.004 1.267-1.731 1.619-0.826 0.4-1.881 0.4-3.99 0.4h-4.025c-2.109 0-3.163 0-3.99-0.4-0.727-0.353-1.331-0.917-1.731-1.619-0.455-0.798-0.525-1.85-0.665-3.954l-0.935-14.026M13.333 14v6.667M18.667 14v6.667"></path>
</symbol>
<!-- icon ua -->
<symbol id="icon-ua" viewBox="0 0 20 32">
<path fill="#fff" style="fill: var(--color1, #fff)" d="M9.005 30.888c-1.738-1.262-2.991-3.156-3.414-5.351h-5.591v-23.117c2.991 1.443 5.153 4.599 5.388 7.876l0.846 6.493-0.407-0.045c-0.893 0-1.676 0.812-1.676 1.608 0 0.752 0.595 1.383 1.378 1.548l1.018 0.226c1.676-3.051 2.631-6.042 2.631-8.973 0-2.645-0.36-5.291-0.423-7.996 0-1.202 0.486-2.3 1.253-3.156 0.783 0.857 1.253 1.954 1.253 3.156 0 2.705-0.423 5.351-0.423 7.996 0 2.931 0.955 5.922 2.631 8.973l1.018-0.226c0.783-0.165 1.378-0.812 1.378-1.548 0-0.812-0.783-1.608-1.676-1.608l-0.423 0.060 0.846-6.493c0.423-3.277 2.396-6.448 5.388-7.876v23.117h-5.576c-0.423 2.179-1.613 4.148-3.414 5.351-0.423 0.286-0.783 0.631-1.018 1.097-0.219-0.466-0.579-0.812-0.987-1.112zM2.647 17.556c0.235-0.857 0.893-1.608 1.738-2.074l-0.658-5.351c-0.235-1.668-0.955-3.156-2.036-4.374v11.784h0.955v0.015zM5.466 23.929c0-0.812 0.125-1.548 0.298-2.3l-0.783-0.18c-1.143-0.346-2.036-1.203-2.334-2.3h-0.955v4.78h3.774zM9.178 23.929c0-0.977-0.783-1.834-1.801-1.954-0.172 0.631-0.298 1.263-0.298 1.954h2.099zM9.178 25.552h-1.864c0.298 1.263 0.955 2.42 1.864 3.397v-3.397zM11.809 20.547c-0.72-1.262-1.378-2.585-1.801-3.968-0.423 1.383-1.081 2.706-1.801 3.968 0.72 0.165 1.316 0.631 1.801 1.157 0.486-0.526 1.081-0.992 1.801-1.157zM12.952 23.929c0-0.691-0.125-1.323-0.297-1.954-1.018 0.12-1.801 0.977-1.801 1.954h2.099zM12.717 25.552h-1.864v3.397c0.908-0.992 1.566-2.134 1.864-3.397zM18.34 23.929v-4.78h-0.955c-0.298 1.097-1.206 1.954-2.334 2.3l-0.783 0.18c0.172 0.752 0.298 1.488 0.298 2.3h3.774zM18.34 17.556v-11.799c-1.081 1.202-1.864 2.706-2.036 4.374l-0.658 5.351c0.846 0.466 1.504 1.203 1.739 2.074h0.955z">
</path>
</symbol>
<!-- icon down support -->
<symbol id="icon-angle-down" viewBox="0 0 32 32">
<path d="M15.053 17.867c0.124 0.125 0.271 0.224 0.434 0.292s0.337 0.103 0.513 0.103 0.35-0.035 0.513-0.103c0.162-0.068 0.31-0.167 0.434-0.292l6.107-6.12c0.124-0.125 0.271-0.224 0.434-0.292s0.337-0.103 0.513-0.103c0.176 0 0.35 0.035 0.513 0.103s0.31 0.167 0.434 0.292c0.248 0.25 0.388 0.588 0.388 0.94s-0.139 0.69-0.388 0.94l-6.12 6.12c-0.75 0.749-1.767 1.17-2.827 1.17s-2.077-0.421-2.827-1.17l-6.12-6.12c-0.246-0.248-0.385-0.584-0.387-0.933-0.001-0.175 0.033-0.349 0.099-0.512s0.164-0.31 0.288-0.435c0.124-0.125 0.271-0.224 0.434-0.292s0.337-0.103 0.513-0.103 0.35 0.035 0.513 0.103c0.162 0.068 0.31 0.167 0.434 0.292l6.107 6.12z"></path>
</symbol>
<!-- icon close -->
<symbol id="icon-close" viewBox="0 0 32 32">
<path stroke-linejoin="round" stroke-linecap="round" stroke-miterlimit="4" stroke-width="3.4286" d="M24 8l-16 16M8 8l16 16"></path>
</symbol>
    <!-- git icon -->
    <symbol id="icon-github" viewBox="0 0 32 32">
<path d="M16.001 0c-3.799-0-7.475 1.386-10.368 3.91s-4.817 6.022-5.425 9.867c-0.609 3.845 0.137 7.787 2.104 11.12s5.026 5.839 8.631 7.071c0.8 0.144 1.099-0.348 1.099-0.779 0-0.389-0.019-1.681-0.019-3.055-4.021 0.758-5.061-1.006-5.381-1.928-0.355-0.898-0.918-1.693-1.64-2.318-0.56-0.307-1.36-1.066-0.021-1.086 0.512 0.057 1.003 0.239 1.431 0.532s0.782 0.687 1.030 1.15c0.219 0.403 0.513 0.758 0.866 1.044s0.757 0.498 1.19 0.624c0.433 0.126 0.886 0.163 1.332 0.109s0.879-0.198 1.271-0.423c0.069-0.834 0.432-1.614 1.021-2.195-3.56-0.41-7.28-1.824-7.28-8.099-0.023-1.631 0.564-3.208 1.64-4.41-0.489-1.417-0.432-2.972 0.16-4.347 0 0 1.339-0.43 4.4 1.681 2.618-0.738 5.382-0.738 8 0 3.059-2.133 4.4-1.681 4.4-1.681 0.592 1.375 0.649 2.93 0.16 4.347 1.079 1.199 1.667 2.778 1.64 4.41 0 6.295-3.741 7.689-7.301 8.099 0.382 0.397 0.676 0.873 0.862 1.397s0.261 1.082 0.218 1.638c0 2.195-0.019 3.959-0.019 4.511 0 0.432 0.299 0.943 1.099 0.779 3.598-1.242 6.648-3.754 8.606-7.089s2.697-7.274 2.084-11.115c-0.613-3.841-2.537-7.334-5.429-9.856s-6.564-3.907-10.36-3.909z"></path>
</symbol>
<!-- icon Linkedin -->
<symbol id="icon-linkedin" viewBox="0 0 32 32">
<path d="M0 2.292c0-1.266 1.052-2.292 2.35-2.292h27.3c1.298 0 2.35 1.026 2.35 2.292v27.416c0 1.266-1.052 2.292-2.35 2.292h-27.3c-1.298 0-2.35-1.026-2.35-2.292v-27.416zM9.886 26.788v-14.45h-4.802v14.45h4.802zM7.486 10.364c1.674 0 2.716-1.108 2.716-2.496-0.030-1.418-1.040-2.496-2.684-2.496s-2.718 1.080-2.718 2.496c0 1.388 1.042 2.496 2.654 2.496h0.032zM17.302 26.788v-8.070c0-0.432 0.032-0.864 0.16-1.172 0.346-0.862 1.136-1.756 2.464-1.756 1.738 0 2.432 1.324 2.432 3.268v7.73h4.802v-8.288c0-4.44-2.368-6.504-5.528-6.504-2.548 0-3.69 1.4-4.33 2.386v0.050h-0.032l0.032-0.050v-2.044h-4.8c0.060 1.356 0 14.45 0 14.45h4.8z"></path>
</symbol>
<!-- icon scroll up -->
<symbol id="icon-angle-up" viewBox="0 0 32 32">
<path d="M4.5 19.6l11.2-11.233c0.133-0.133 0.278-0.228 0.433-0.283s0.322-0.084 0.5-0.084c0.178 0 0.345 0.028 0.5 0.084s0.3 0.149 0.433 0.283l11.233 11.233c0.311 0.311 0.467 0.7 0.467 1.167s-0.167 0.867-0.5 1.2-0.722 0.5-1.167 0.5c-0.445 0-0.833-0.167-1.167-0.5l-9.8-9.8-9.8 9.8c-0.311 0.311-0.694 0.467-1.149 0.467s-0.851-0.167-1.184-0.5-0.5-0.722-0.5-1.167c0-0.444 0.167-0.833 0.5-1.167z"></path>
</symbol>
<!-- ham-menu-icon -->
<symbol id="ham-menu-icon" viewBox="0 0 32 32">
<path stroke-linejoin="round" stroke-linecap="round" stroke-miterlimit="4" stroke-width="2.2857" d="M22.667 13.333h-18.667"></path>
<path stroke-linejoin="round" stroke-linecap="round" stroke-miterlimit="4" stroke-width="2.2857" d="M28 8h-24"></path>
<path stroke-linejoin="round" stroke-linecap="round" stroke-miterlimit="4" stroke-width="2.2857" d="M28 18.667h-24"></path>
<path stroke-linejoin="round" stroke-linecap="round" stroke-miterlimit="4" stroke-width="2.2857" d="M22.667 24h-18.667"></path>
</symbol>
<!-- book logo icon -->
<symbol id="booklogo-icon" viewBox="0 0 32 32">
<path fill="#f6f6f6" style="fill: var(--color1, #f6f6f6)" d="M0 0l16.343 16.172 15.657 15.828v-32h-32z"></path>
<path fill="#f6f6f6" style="fill: var(--color1, #f6f6f6)" d="M4.457 4.229l11.943 11.829 11.257 11.486h-23.2v-23.314z"></path>
<path fill="#4f2ee8" style="fill: var(--color2, #4f2ee8)" d="M27.733 27.618l-11.943-11.829-11.257-11.486h23.2v23.314z"></path>
<path fill="#4f2ee8" style="fill: var(--color2, #4f2ee8)" d="M9.257 9.029l13.6 13.6h-13.6v-13.6z"></path>
<path fill="#f6f6f6" style="fill: var(--color1, #f6f6f6)" d="M9.257 9.029l13.6 13.6v-13.6h-13.6z"></path>
</symbol>
<!--  -->
<!-- logo word -->
<symbol id="icon-Bookshelf" viewBox="0 0 178 32">
<path d="M22.176 8.533c0-4.731-3.497-7.406-9.545-7.406h-12.631v29.417h13.33c6.089 0 9.998-2.921 9.998-8.599 0-4.402-2.633-6.665-5.719-7.2v-0.082c2.427-0.823 4.567-2.51 4.567-6.13zM4.896 13.305v-8.023h7.858c2.921 0 4.526 1.44 4.526 4.032s-1.317 3.991-4.814 3.991h-7.57zM4.896 16.967h8.599c3.086 0 4.937 1.687 4.937 4.69 0 2.757-1.275 4.731-5.472 4.731h-8.064v-9.422z"></path>
<path d="M35.89 31.161c-6.583 0-10.574-4.567-10.574-11.109s3.991-11.109 10.574-11.109c6.583 0 10.574 4.567 10.574 11.109s-3.991 11.109-10.574 11.109zM35.89 27.623c4.114 0 6.254-3.25 6.254-7.57 0-4.361-2.139-7.57-6.254-7.57s-6.254 3.209-6.254 7.57c0 4.32 2.139 7.57 6.254 7.57z"></path>
<path d="M58.912 31.161c-6.583 0-10.574-4.567-10.574-11.109s3.991-11.109 10.574-11.109c6.583 0 10.574 4.567 10.574 11.109s-3.991 11.109-10.574 11.109zM58.912 27.623c4.114 0 6.254-3.25 6.254-7.57 0-4.361-2.139-7.57-6.254-7.57s-6.254 3.209-6.254 7.57c0 4.32 2.139 7.57 6.254 7.57z"></path>
<path d="M72.472 1.127v29.417h4.32v-7.611l2.921-2.757 6.624 10.368h5.184l-8.846-13.207 7.982-7.817h-5.307l-8.558 8.434v-16.827h-4.32z"></path>
<path d="M101.935 17.831c-3.045-0.699-5.39-0.864-5.39-3.003 0-1.481 1.399-2.469 3.991-2.469 3.374 0 4.197 1.687 4.485 3.333h4.197c-0.288-3.662-3.003-6.747-8.722-6.747-5.266 0-8.311 2.757-8.311 6.213 0 4.773 4.526 5.431 7.858 6.213 3.086 0.741 5.595 0.946 5.595 3.579 0 1.317-1.275 2.798-4.279 2.798-4.443 0-5.431-1.934-5.637-4.197h-4.197c0.206 4.443 3.127 7.611 9.915 7.611 5.102 0 8.558-2.51 8.558-6.542 0-5.019-4.197-5.883-8.064-6.789z"></path>
<path d="M124.123 8.944c-3.538 0-5.719 1.646-6.83 3.291h-0.082v-11.109h-4.32v29.417h4.32v-12.795c0-3.127 2.263-5.143 5.431-5.143 3.003 0 4.197 1.81 4.197 4.649v13.289h4.361v-14.523c0-4.814-3.086-7.077-7.077-7.077z"></path>
<path d="M144.448 27.623c-3.826 0-6.089-2.921-6.089-6.459h16.128c0-7.488-3.333-12.219-10.121-12.219-6.336 0-10.327 4.279-10.327 11.109 0 6.583 3.991 11.109 10.533 11.109 5.39 0 8.517-3.045 9.586-7.035h-4.32c-0.37 1.275-1.81 3.497-5.39 3.497zM144.366 12.359c3.497 0 5.801 2.345 5.801 5.595h-11.808c0-3.25 2.51-5.595 6.007-5.595z"></path>
<path d="M157.531 1.127v29.417h4.361v-29.417h-4.361z"></path>
<path d="M176.003 4.665v-3.538c-0.864-0.165-1.81-0.288-2.88-0.288-3.456 0-5.349 1.563-5.349 6.007v2.674h-3.003v3.538h3.003v17.486h4.361v-17.486h3.867v-3.538h-3.867v-2.304c0-2.386 1.070-2.674 3.867-2.551z"></path>
</symbol>
<!-- bag -->
<symbol id="bag" viewBox="0 0 32 32">
<path d="M25.333 9.333h-4v-1.333c0-1.415-0.562-2.771-1.562-3.771s-2.357-1.562-3.771-1.562c-1.414 0-2.771 0.562-3.771 1.562s-1.562 2.357-1.562 3.771v1.333h-4c-0.354 0-0.693 0.14-0.943 0.391s-0.391 0.589-0.391 0.943v14.667c0 1.061 0.421 2.078 1.172 2.828s1.768 1.172 2.828 1.172h13.333c1.061 0 2.078-0.421 2.828-1.172s1.172-1.768 1.172-2.828v-14.667c0-0.354-0.14-0.693-0.391-0.943s-0.589-0.391-0.943-0.391zM13.333 8c0-0.707 0.281-1.386 0.781-1.886s1.178-0.781 1.886-0.781c0.707 0 1.386 0.281 1.886 0.781s0.781 1.178 0.781 1.886v1.333h-5.333v-1.333zM24 25.333c0 0.354-0.14 0.693-0.39 0.943s-0.589 0.391-0.943 0.391h-13.333c-0.354 0-0.693-0.14-0.943-0.391s-0.391-0.589-0.391-0.943v-13.333h2.667v1.333c0 0.354 0.14 0.693 0.39 0.943s0.589 0.391 0.943 0.391c0.354 0 0.693-0.14 0.943-0.391s0.391-0.589 0.391-0.943v-1.333h5.333v1.333c0 0.354 0.14 0.693 0.391 0.943s0.589 0.391 0.943 0.391c0.354 0 0.693-0.14 0.943-0.391s0.391-0.589 0.391-0.943v-1.333h2.667v13.333z"></path>
</symbol>
<!-- x-close -->
<symbol id="x-close-icon" viewBox="0 0 32 32">
<path stroke-linejoin="round" stroke-linecap="round" stroke-miterlimit="4" stroke-width="3.4286" d="M24 8l-16 16M8 8l16 16"></path>
</symbol>
<!-- user dafault icon -->
<symbol id="user-default-icon" viewBox="0 0 32 32"><path d="M5.333 29.333a10.666 10.666 0 0 1 21.332 0H5.332zm10.667-12c-4.42 0-8-3.58-8-8s3.58-8 8-8 8 3.58 8 8-3.58 8-8 8z"/></symbol>
<!-- user arrow down icon -->
<symbol id="user-arrow-down-icon" viewBox="0 0 28 32"><path d="M5.898 12h16.513l-7.423 8.391c-.221.25-.521.39-.834.39s-.613-.14-.834-.39L5.897 12z"/></symbol>
<!-- arrow right icon -->
<symbol id="arrow-right-icon" viewBox="0 0 32 32">
<path stroke-linejoin="round" stroke-linecap="round" stroke-miterlimit="4" stroke-width="3.2" d="M5.333 16h21.333M26.667 16l-8-8M26.667 16l-8 8"></path>
</symbol>
<!-- icon arrow right -->
<symbol id="icon-arrow-right" viewBox="0 0 32 32">
<path stroke-linejoin="round" stroke-linecap="round" stroke-miterlimit="4" stroke-width="3.2" d="M5.333 16h21.333M26.666 16l-8-8M26.666 16l-8 8"></path>
</symbol>
<!-- icon user -->
<symbol id="icon-user" viewBox="0 0 32 32">
<path d="M5.333 29.333c0-2.829 1.124-5.542 3.124-7.542s4.713-3.124 7.542-3.124c2.829 0 5.542 1.124 7.542 3.124s3.124 4.713 3.124 7.542h-21.333zM16 17.333c-4.42 0-8-3.58-8-8s3.58-8 8-8c4.42 0 8 3.58 8 8s-3.58 8-8 8z"></path>
</symbol>
<!-- icon mail authorization form-->
<symbol id="icon-mail-02" viewBox="0 0 32 32">
<path d="M6.4 4.248c-0.475 0.049-1.258 0.195-1.51 0.282-0.931 0.32-1.833 0.997-2.374 1.782-0.501 0.726-0.687 1.19-0.861 2.142-0.104 0.568-0.107 0.799-0.106 7.36 0 6.487 0.016 7.271 0.161 8.026 0.262 1.261 0.984 2.319 1.98 3.012l0.016 0.010c0.658 0.445 1.16 0.646 2 0.802 0.474 0.089 1.15 0.095 10.294 0.095s9.819-0.006 10.294-0.095c0.869-0.162 1.357-0.362 2.061-0.848 0.981-0.701 1.681-1.741 1.93-2.946l0.005-0.031c0.145-0.755 0.161-1.539 0.161-8.026 0.001-6.561-0.002-6.792-0.106-7.36-0.127-0.694-0.222-1.007-0.439-1.44-0.378-0.759-0.918-1.394-1.551-1.831-0.682-0.47-1.173-0.677-2.008-0.845-0.417-0.085-1.216-0.093-10.106-0.101-5.31-0.005-9.737 0-9.84 0.010zM24.937 6.504c0.512 0.027 1.062 0.087 1.254 0.137 0.845 0.218 1.614 0.981 1.83 1.811 0.065 0.251 0.069 0.334 0.018 0.383-0.198 0.19-11.107 7.776-11.387 7.919-0.265 0.135-0.401 0.17-0.651 0.17s-0.386-0.035-0.651-0.17c-0.28-0.143-11.19-7.729-11.387-7.919-0.050-0.049-0.047-0.131 0.018-0.383 0.217-0.834 0.984-1.593 1.834-1.814 0.191-0.050 0.682-0.109 1.093-0.13 1.091-0.057 16.959-0.061 18.031-0.005zM7.097 13.826c1.77 1.24 3.216 2.273 3.211 2.298-0.005 0.024-1.456 1.351-3.225 2.949-3.099 2.799-3.218 2.899-3.25 2.755-0.051-0.229-0.053-10.255-0.001-10.255 0.025 0 1.495 1.014 3.265 2.253zM28.207 16.626c-0.003 2.779-0.022 5.121-0.040 5.202-0.032 0.144-0.151 0.043-3.25-2.755-1.769-1.598-3.221-2.925-3.225-2.949-0.008-0.048 6.4-4.551 6.477-4.551 0.025 0 0.042 2.273 0.039 5.053zM13.238 18.115c1.325 0.896 1.801 1.082 2.762 1.082 0.962 0 1.438-0.186 2.767-1.085 0.507-0.344 0.945-0.618 0.971-0.609s1.789 1.587 3.914 3.507l3.867 3.491-0.2 0.206c-0.306 0.3-0.686 0.525-1.111 0.646l-0.018 0.004c-0.615 0.159-2.048 0.185-10.191 0.185s-9.576-0.026-10.191-0.185c-0.443-0.125-0.823-0.35-1.13-0.651l0 0-0.2-0.206 3.88-3.504c2.134-1.928 3.897-3.505 3.919-3.505s0.453 0.28 0.959 0.622z">
</path>
</symbol> 
<!-- icon lock authorization form-->
<symbol id="icon-lock-02" viewBox="0 0 32 32">
<path d="M14.751 2.963c-2.995 0.511-5.381 2.662-6.226 5.479l-0.014 0.056c-0.257 0.886-0.297 1.331-0.297 3.257v1.783l-0.36 0.034c-1.35 0.129-2.006 0.345-2.875 0.944-0.793 0.547-1.498 1.496-1.797 2.417-0.256 0.792-0.275 1.098-0.275 4.4 0 3.301 0.019 3.607 0.275 4.4 0.304 0.939 1.032 1.904 1.858 2.462 0.658 0.445 1.16 0.647 2 0.803 0.472 0.088 1.093 0.095 8.96 0.095s8.488-0.007 8.96-0.095c0.84-0.157 1.342-0.359 2-0.803 0.826-0.558 1.554-1.522 1.858-2.462 0.256-0.793 0.275-1.099 0.275-4.4 0-3.302-0.019-3.608-0.275-4.4-0.304-0.941-1.032-1.904-1.858-2.463-0.824-0.557-1.499-0.773-2.814-0.898l-0.36-0.034v-1.783c0-1.926-0.040-2.371-0.297-3.257-0.859-2.891-3.271-5.051-6.245-5.531l-0.045-0.006c-0.611-0.098-1.855-0.097-2.448 0.002zM17.12 5.262c1.75 0.345 3.32 1.665 3.997 3.36 0.363 0.909 0.399 1.194 0.401 3.165l0.002 1.734h-11.040l0.002-1.734c0.002-1.97 0.038-2.256 0.401-3.165 0.871-2.181 3.074-3.599 5.383-3.465 0.25 0.015 0.634 0.062 0.854 0.105zM23.605 15.838c0.511 0.027 1.061 0.087 1.253 0.136 0.855 0.221 1.616 0.982 1.835 1.835 0.247 0.96 0.247 6.089 0 7.048-0.219 0.854-0.981 1.615-1.835 1.835-0.601 0.155-2.011 0.185-8.857 0.185s-8.256-0.030-8.857-0.185c-0.855-0.221-1.616-0.982-1.835-1.835-0.248-0.96-0.247-6.090 0-7.048 0.221-0.856 0.979-1.614 1.839-1.838 0.191-0.049 0.683-0.107 1.094-0.129 1.091-0.057 14.294-0.062 15.365-0.005z">
</path>
</symbol>
<!-- paginatiom button -->
<symbol id="icon-double-small-right" viewBox="0 0 32 32">
<path fill="#000000" style="fill: var(--color1, #000000)" d="M17.467 25.333c-0.734-0.003-1.328-0.599-1.328-1.333 0-0.37 0.151-0.705 0.394-0.947l0-0 6.133-6.107c0.243-0.242 0.394-0.577 0.394-0.947s-0.151-0.705-0.394-0.947l-0-0-6.133-6.107c-0.244-0.241-0.396-0.576-0.396-0.947s0.151-0.705 0.395-0.947l0-0c0.241-0.24 0.573-0.388 0.94-0.388s0.699 0.148 0.94 0.388l6.12 6.12c0.723 0.724 1.17 1.723 1.17 2.827s-0.447 2.103-1.17 2.827l-6.12 6.12c-0.241 0.239-0.573 0.387-0.939 0.387-0.003 0-0.005 0-0.008-0h0z">
</path>
<path fill="#000000" style="fill: var(--color1, #000000)" d="M8.133 25.333c-0.734-0.003-1.328-0.599-1.328-1.333 0-0.37 0.151-0.705 0.394-0.947l7.053-7.053-7.053-7.053c-0.243-0.242-0.394-0.577-0.394-0.947 0-0.737 0.597-1.334 1.334-1.334 0.367 0 0.699 0.148 0.94 0.388l8 8c0.244 0.242 0.394 0.577 0.394 0.947s-0.151 0.705-0.394 0.947l-8 8c-0.241 0.239-0.573 0.387-0.939 0.387-0.003 0-0.005 0-0.008-0h0z">
            </path>
</symbol>

<!-- arrow double-small-left -->
<symbol id="icon-double-small-left" viewBox="0 0 32 32">
<path fill="#FFFFFF" style="fill: var(--color1, #FFFFFF)" d="M13.973 25.333c-0.364-0.002-0.694-0.149-0.933-0.387l-6.12-6.12c-0.723-0.724-1.17-1.723-1.17-2.827s0.447-2.103 1.17-2.827l6.12-6.12c0.241-0.239 0.573-0.387 0.94-0.387 0.737 0 1.334 0.597 1.334 1.334 0 0.37-0.151 0.705-0.394 0.947l-0 0-6.12 6.107c-0.244 0.242-0.395 0.576-0.395 0.947s0.151 0.705 0.395 0.947l0 0 6.12 6.107c0.244 0.241 0.395 0.576 0.395 0.946 0 0.186-0.038 0.362-0.107 0.523l0.003-0.009c-0.206 0.486-0.678 0.82-1.229 0.82-0.003 0-0.007 0-0.010-0h0.001z">
</path>
<path fill="#FFFFFF" style="fill: var(--color1, #FFFFFF)" d="M23.307 25.333c-0.364-0.002-0.694-0.149-0.933-0.387l-8-8c-0.244-0.241-0.396-0.576-0.396-0.947s0.151-0.705 0.395-0.947l8-8c0.241-0.239 0.573-0.387 0.94-0.387 0.737 0 1.334 0.597 1.334 1.334 0 0.37-0.151 0.705-0.394 0.947l-7.053 7.053 7.053 7.053c0.244 0.241 0.396 0.576 0.396 0.947s-0.151 0.705-0.395 0.947l-0 0c-0.241 0.239-0.573 0.387-0.939 0.387-0.003 0-0.005 0-0.008-0h0z">
</path>
</symbol>  
<!-- arrow small-left -->
<symbol id="icon-small-left" viewBox="0 0 32 32">
<path fill="#FFFFFF" style="fill: var(--color1, #FFFFFF)" d="M14.133 16.947c-0.243-0.242-0.394-0.577-0.394-0.947s0.151-0.705 0.394-0.947l0-0 6.12-6.107c0.243-0.242 0.394-0.577 0.394-0.947 0-0.737-0.597-1.334-1.334-1.334-0.367 0-0.699 0.148-0.94 0.388l-6.12 6.12c-0.723 0.724-1.17 1.723-1.17 2.827s0.447 2.103 1.17 2.827l6.12 6.12c0.241 0.239 0.573 0.387 0.94 0.387 0.737 0 1.334-0.597 1.334-1.334 0-0.37-0.151-0.705-0.394-0.947l-0-0-6.12-6.107z">
</path>
</symbol>
<!-- arrow small-right -->
<symbol id="icon-small-right" viewBox="0 0 32 32">
<path fill="#000000" style="fill: var(--color1, #000000)" d="M20.533 13.173l-6.12-6.12c-0.241-0.239-0.573-0.387-0.94-0.387-0.737 0-1.334 0.597-1.334 1.334 0 0.37 0.151 0.705 0.394 0.947l0 0 6.133 6.107c0.244 0.241 0.395 0.576 0.395 0.946 0 0.186-0.038 0.362-0.107 0.523l0.003-0.009c-0.072 0.169-0.171 0.313-0.293 0.433l-0 0-6.133 6.107c-0.243 0.242-0.394 0.577-0.394 0.947 0 0.737 0.597 1.334 1.334 1.334 0.367 0 0.699-0.148 0.94-0.387l6.12-6.12c0.723-0.724 1.17-1.723 1.17-2.827s-0.447-2.103-1.17-2.827l0 0z">
</path>
</symbol>     

</defs>
</svg>
