<svg aria-hidden="true" style="position: absolute; width: 0; height: 0; overflow: hidden;" version="1.1" xmlns="http://www.w3.org/2000/svg" xmlns:xlink="http://www.w3.org/1999/xlink">
<defs>
<symbol id="icon-book" viewBox="0 0 30 32">
<path d="M29.392 10.57c-0.643-0.348-1.314-0.637-2.012-0.883v17.419c-1.561-0.594-3.162-0.898-4.791-0.898-2.601 0-5.175 0.782-7.529 2.288v-17.52c-2.218-1.347-4.778-2.143-7.529-2.143-2.45 0-4.764 0.637-6.804 1.738-0.452 0.232-0.726 0.738-0.726 1.274v17.491c0 0.84 0.643 1.433 1.369 1.433 0.219 0 0.438-0.058 0.657-0.174 1.656-0.912 3.518-1.491 5.503-1.491 2.834 0 5.449 1.187 7.529 2.896 2.081-1.709 4.696-2.896 7.529-2.896 1.985 0 3.847 0.579 5.503 1.506 0.219 0.116 0.438 0.174 0.657 0.174 0.712 0 1.369-0.594 1.369-1.433v-17.506c0-0.536-0.274-1.043-0.726-1.274zM12.321 27.106c-1.561-0.594-3.162-0.898-4.791-0.898s-3.231 0.304-4.791 0.898v-14.349c1.52-0.68 3.121-1.028 4.791-1.028 1.643 0 3.272 0.362 4.791 1.043v14.335zM24.642 3.765l-6.845 7.24v13.756l6.845-6.516v-14.48z"></path>
</symbol>
<symbol id="icon-burger-menu" viewBox="0 0 32 32">
<path stroke-linejoin="round" stroke-linecap="round" stroke-miterlimit="4" stroke-width="2.2857" d="M22.667 13.333h-18.667M28 8h-24M28 18.667h-24M22.667 24h-18.667"></path>
</symbol>
<symbol id="icon-close" viewBox="0 0 32 32">
<path stroke-linejoin="round" stroke-linecap="round" stroke-miterlimit="4" stroke-width="3.4286" d="M24 8l-16 16M8 8l16 16"></path>
</symbol>
<symbol id="icon-arrow-right" viewBox="0 0 32 32">
<path stroke-linejoin="round" stroke-linecap="round" stroke-miterlimit="4" stroke-width="3.2" d="M5.333 16h21.333M26.666 16l-8-8M26.666 16l-8 8"></path>
</symbol>
<symbol id="icon-switcher-circle" viewBox="0 0 32 32">
<path d="M14.769 24.615c6.118 0 11.077-4.959 11.077-11.077s-4.959-11.077-11.077-11.077v0c-6.118 0-11.077 4.959-11.077 11.077s4.959 11.077 11.077 11.077v0z"></path>
</symbol>
<symbol id="icon-angle-left" viewBox="0 0 32 32">
<path d="M17.868 16.945c0.242-0.242 0.392-0.576 0.392-0.945s-0.15-0.704-0.392-0.945l-0-0-6.119-6.109c-0.264-0.244-0.428-0.592-0.428-0.979 0-0.737 0.597-1.334 1.334-1.334 0.384 0 0.729 0.162 0.973 0.421l0.001 0.001 6.121 6.119c0.723 0.724 1.169 1.723 1.169 2.826s-0.447 2.103-1.169 2.826l-6.121 6.121c-0.241 0.239-0.573 0.387-0.94 0.387-0.737 0-1.334-0.597-1.334-1.334 0-0.37 0.151-0.705 0.394-0.947l0-0 6.119-6.106z"></path>
</symbol>
<symbol id="icon-angle-right" viewBox="0 0 32 32">
<path d="M14.132 16.945c-0.243-0.242-0.393-0.576-0.393-0.945s0.15-0.704 0.393-0.945l0-0 6.119-6.109c0.243-0.242 0.393-0.576 0.393-0.945 0-0.736-0.597-1.333-1.333-1.333-0.367 0-0.699 0.148-0.94 0.388l-6.121 6.118c-0.723 0.724-1.169 1.723-1.169 2.826s0.447 2.103 1.169 2.826l6.121 6.121c0.241 0.239 0.573 0.387 0.94 0.387 0.737 0 1.334-0.597 1.334-1.334 0-0.37-0.151-0.705-0.394-0.947l-0-0-6.119-6.106z"></path>
</symbol>
<symbol id="icon-logo" viewBox="0 0 32 32">
<path d="M0 0l16.343 16.172 15.657 15.828v-32h-32z"></path>
<path d="M4.457 4.228l11.943 11.829 11.257 11.485h-23.2v-23.315z"></path>
<path d="M27.733 27.619l-11.944-11.829-11.256-11.485h23.2v23.315z"></path>
<path d="M9.256 9.028l13.6 13.601h-13.6v-13.6z"></path>
<path d="M9.256 9.028l13.6 13.601v-13.6h-13.6z"></path>
</symbol>
<symbol id="icon-mail" viewBox="0 0 32 32">
<path stroke-linejoin="round" stroke-linecap="round" stroke-miterlimit="4" stroke-width="2.2857" d="M28.666 24l-8.857-8M12.19 16l-8.857 8M2.667 9.333l10.887 7.621c0.882 0.617 1.322 0.926 1.802 1.045 0.423 0.106 0.866 0.106 1.29 0 0.479-0.12 0.92-0.428 1.802-1.045l10.887-7.621M9.067 26.667h13.867c2.24 0 3.36 0 4.216-0.436 0.753-0.384 1.365-0.995 1.748-1.748 0.436-0.856 0.436-1.976 0.436-4.216v-8.533c0-2.24 0-3.36-0.436-4.216-0.383-0.753-0.995-1.365-1.748-1.748-0.856-0.436-1.976-0.436-4.216-0.436h-13.867c-2.24 0-3.36 0-4.216 0.436-0.753 0.383-1.365 0.995-1.748 1.748-0.436 0.856-0.436 1.976-0.436 4.216v8.533c0 2.24 0 3.36 0.436 4.216 0.384 0.753 0.995 1.365 1.748 1.748 0.856 0.436 1.976 0.436 4.216 0.436z"></path>
</symbol>
<symbol id="icon-angle-up" viewBox="0 0 32 32">
<path d="M4.5 19.6l11.2-11.233c0.133-0.133 0.278-0.228 0.433-0.283s0.322-0.084 0.5-0.084c0.178 0 0.345 0.028 0.5 0.084s0.3 0.149 0.433 0.283l11.233 11.233c0.311 0.311 0.467 0.7 0.467 1.167s-0.167 0.867-0.5 1.2-0.722 0.5-1.167 0.5c-0.445 0-0.833-0.167-1.167-0.5l-9.8-9.8-9.8 9.8c-0.311 0.311-0.694 0.467-1.149 0.467s-0.851-0.167-1.184-0.5-0.5-0.722-0.5-1.167c0-0.444 0.167-0.833 0.5-1.167z"></path>
</symbol>
<symbol id="icon-switcher" viewBox="0 0 64 32">
<path d="M0 16c0-8.837 7.163-16 16-16h32c8.837 0 16 7.163 16 16s-7.163 16-16 16h-32c-8.837 0-16-7.163-16-16z"></path>
</symbol>
<symbol id="icon-user" viewBox="0 0 32 32">
<path d="M5.333 29.333c0-2.829 1.124-5.542 3.124-7.542s4.713-3.124 7.542-3.124c2.829 0 5.542 1.124 7.542 3.124s3.124 4.713 3.124 7.542h-21.333zM16 17.333c-4.42 0-8-3.58-8-8s3.58-8 8-8c4.42 0 8 3.58 8 8s-3.58 8-8 8z"></path>
</symbol>
<symbol id="icon-trash" viewBox="0 0 32 32">
<path stroke-linejoin="round" stroke-linecap="round" stroke-miterlimit="4" stroke-width="2.9091" d="M12 4h8M4 8h24M25.333 8l-0.935 14.026c-0.14 2.104-0.21 3.157-0.665 3.954-0.4 0.702-1.004 1.267-1.731 1.619-0.826 0.4-1.881 0.4-3.99 0.4h-4.025c-2.109 0-3.163 0-3.99-0.4-0.727-0.353-1.331-0.917-1.731-1.619-0.455-0.798-0.525-1.85-0.665-3.954l-0.935-14.026M13.333 14v6.667M18.667 14v6.667"></path>
</symbol>
<symbol id="icon-basket" viewBox="0 0 32 32">
<path d="M25.333 9.333h-4v-1.333c0-2.946-2.388-5.334-5.334-5.334s-5.334 2.388-5.334 5.334v0 1.333h-4c-0.736 0-1.333 0.597-1.333 1.333 0 0.001 0 0.001 0 0.002v-0 14.666c0 2.209 1.791 4 4 4v0h13.333c2.209 0 4-1.791 4-4v0-14.666c0-0.736-0.597-1.334-1.333-1.334h-0zM13.333 8c-0.001-0.019-0.001-0.042-0.001-0.065 0-1.473 1.194-2.667 2.667-2.667s2.667 1.194 2.667 2.667c0 0.023-0 0.046-0.001 0.069l0-0.003v1.333h-5.333v-1.333zM24 25.333c0 0 0 0.001 0 0.002 0 0.736-0.597 1.333-1.333 1.333-0.001 0-0.001 0-0.002 0h-13.333c-0.736 0-1.333-0.597-1.333-1.333 0-0.001 0-0.001 0-0.002v0-13.333h2.666v1.333c0 0.737 0.597 1.334 1.334 1.334s1.334-0.597 1.334-1.334v0-1.333h5.333v1.333c0 0.737 0.597 1.334 1.334 1.334s1.334-0.597 1.334-1.334v0-1.333h2.667v13.333z"></path>
</symbol>
<symbol id="icon-angle-down" viewBox="0 0 32 32">
<path d="M15.053 17.867c0.124 0.125 0.271 0.224 0.434 0.292s0.337 0.103 0.513 0.103 0.35-0.035 0.513-0.103c0.162-0.068 0.31-0.167 0.434-0.292l6.107-6.12c0.124-0.125 0.271-0.224 0.434-0.292s0.337-0.103 0.513-0.103c0.176 0 0.35 0.035 0.513 0.103s0.31 0.167 0.434 0.292c0.248 0.25 0.388 0.588 0.388 0.94s-0.139 0.69-0.388 0.94l-6.12 6.12c-0.75 0.749-1.767 1.17-2.827 1.17s-2.077-0.421-2.827-1.17l-6.12-6.12c-0.246-0.248-0.385-0.584-0.387-0.933-0.001-0.175 0.033-0.349 0.099-0.512s0.164-0.31 0.288-0.435c0.124-0.125 0.271-0.224 0.434-0.292s0.337-0.103 0.513-0.103 0.35 0.035 0.513 0.103c0.162 0.068 0.31 0.167 0.434 0.292l6.107 6.12z"></path>
</symbol>
</defs>
</svg>
