<svg xmlns="http://www.w3.org/2000/svg" aria-hidden="true" style="position:absolute;width:0;height:0;overflow:hidden">
    <defs>
        <symbol id="icon-book" viewBox="0 0 30 32">
            <path
                d="M29.392 10.57c-.643-.348-1.314-.637-2.012-.883v17.419c-1.561-.594-3.162-.898-4.791-.898-2.601 0-5.175.782-7.529 2.288v-17.52c-2.218-1.347-4.778-2.143-7.529-2.143-2.45 0-4.764.637-6.804 1.738-.452.232-.726.738-.726 1.274v17.491c0 .84.643 1.433 1.369 1.433.219 0 .438-.058.657-.174 1.656-.912 3.518-1.491 5.503-1.491 2.834 0 5.449 1.187 7.529 2.896 2.081-1.709 4.696-2.896 7.529-2.896 1.985 0 3.847.579 5.503 1.506.219.116.438.174.657.174.712 0 1.369-.594 1.369-1.433V11.845c0-.536-.274-1.043-.726-1.274zM12.321 27.106c-1.561-.594-3.162-.898-4.791-.898s-3.231.304-4.791.898V12.757c1.52-.68 3.121-1.028 4.791-1.028 1.643 0 3.272.362 4.791 1.043v14.335zM24.642 3.765l-6.845 7.24v13.756l6.845-6.516V3.765z" />
        </symbol>
        <symbol id="icon-burger-menu" viewBox="0 0 32 32">
            <path stroke-linecap="round" stroke-linejoin="round" stroke-width="2.2857"
                d="M22.667 13.333H4M28 8H4m24 10.667H4M22.667 24H4" />
        </symbol>
        <symbol id="icon-close" viewBox="0 0 32 32">
            <path stroke-linecap="round" stroke-linejoin="round" stroke-width="3.4286" d="M24 8 8 24M8 8l16 16" />
        </symbol>
        <symbol id="icon-arrow-right" viewBox="0 0 32 32">
            <path stroke-linecap="round" stroke-linejoin="round" stroke-width="3.2"
                d="M5.333 16h21.333m0 0-8-8m8 8-8 8" />
        </symbol>
        <symbol id="icon-switcher-circle" viewBox="0 0 32 32">
            <path
                d="M14.769 24.615c6.118 0 11.077-4.959 11.077-11.077S20.887 2.461 14.769 2.461 3.692 7.42 3.692 13.538s4.959 11.077 11.077 11.077z" />
        </symbol>
        <symbol id="icon-angle-left" viewBox="0 0 32 32">
            <path
                d="M17.868 16.945c.242-.242.392-.576.392-.945s-.15-.704-.392-.945l-6.119-6.109c-.264-.244-.428-.592-.428-.979 0-.737.597-1.334 1.334-1.334.384 0 .729.162.973.421l.001.001 6.121 6.119c.723.724 1.169 1.723 1.169 2.826s-.447 2.103-1.169 2.826l-6.121 6.121c-.241.239-.573.387-.94.387-.737 0-1.334-.597-1.334-1.334 0-.37.151-.705.394-.947l6.119-6.106z" />
        </symbol>
        <symbol id="icon-angle-right" viewBox="0 0 32 32">
            <path
                d="M14.132 16.945c-.243-.242-.393-.576-.393-.945s.15-.704.393-.945l6.119-6.109c.243-.242.393-.576.393-.945 0-.736-.597-1.333-1.333-1.333-.367 0-.699.148-.94.388l-6.121 6.118c-.723.724-1.169 1.723-1.169 2.826s.447 2.103 1.169 2.826l6.121 6.121c.241.239.573.387.94.387.737 0 1.334-.597 1.334-1.334 0-.37-.151-.705-.394-.947l-6.119-6.106z" />
        </symbol>
        <symbol id="icon-logo" viewBox="0 0 32 32">
            <path d="m0 0 16.343 16.172L32 32V0H0z" />
            <path d="M4.457 4.228 16.4 16.057l11.257 11.485h-23.2V4.227z" />
            <path d="M27.733 27.619 15.789 15.79 4.533 4.305h23.2V27.62z" />
            <path d="m9.256 9.028 13.6 13.601h-13.6v-13.6z" />
            <path d="m9.256 9.028 13.6 13.601v-13.6h-13.6z" />
        </symbol>
        <symbol id="icon-mail" viewBox="0 0 32 32">
            <path stroke-linecap="round" stroke-linejoin="round" stroke-width="2.2857"
                d="m28.666 24-8.857-8m-7.619 0-8.857 8M2.667 9.333l10.887 7.621c.882.617 1.322.926 1.802 1.045.423.106.866.106 1.29 0 .479-.12.92-.428 1.802-1.045l10.887-7.621M9.067 26.667h13.867c2.24 0 3.36 0 4.216-.436.753-.384 1.365-.995 1.748-1.748.436-.856.436-1.976.436-4.216v-8.533c0-2.24 0-3.36-.436-4.216-.383-.753-.995-1.365-1.748-1.748-.856-.436-1.976-.436-4.216-.436H9.067c-2.24 0-3.36 0-4.216.436-.753.383-1.365.995-1.748 1.748-.436.856-.436 1.976-.436 4.216v8.533c0 2.24 0 3.36.436 4.216.384.753.995 1.365 1.748 1.748.856.436 1.976.436 4.216.436z" />
        </symbol>
        <symbol id="icon-angle-up" viewBox="0 0 32 32">
            <path
                d="M4.5 19.6 15.7 8.367c.133-.133.278-.228.433-.283s.322-.084.5-.084.345.028.5.084.3.149.433.283L28.799 19.6c.311.311.467.7.467 1.167s-.167.867-.5 1.2-.722.5-1.167.5c-.445 0-.833-.167-1.167-.5l-9.8-9.8-9.8 9.8c-.311.311-.694.467-1.149.467s-.851-.167-1.184-.5-.5-.722-.5-1.167c0-.444.167-.833.5-1.167z" />
        </symbol>
        <symbol id="icon-switcher" viewBox="0 0 64 32">
            <path d="M0 16C0 7.163 7.163 0 16 0h32c8.837 0 16 7.163 16 16s-7.163 16-16 16H16C7.163 32 0 24.837 0 16z" />
        </symbol>
        <symbol id="icon-user" viewBox="0 0 32 32">
            <path
                d="M5.333 29.333c0-2.829 1.124-5.542 3.124-7.542s4.713-3.124 7.542-3.124c2.829 0 5.542 1.124 7.542 3.124s3.124 4.713 3.124 7.542H5.332zm10.667-12c-4.42 0-8-3.58-8-8s3.58-8 8-8 8 3.58 8 8-3.58 8-8 8z" />
        </symbol>
        <symbol id="icon-trash" viewBox="0 0 32 32">
            <path stroke-linecap="round" stroke-linejoin="round" stroke-width="2.9091"
                d="M12 4h8M4 8h24m-2.667 0-.935 14.026c-.14 2.104-.21 3.157-.665 3.954-.4.702-1.004 1.267-1.731 1.619-.826.4-1.881.4-3.99.4h-4.025c-2.109 0-3.163 0-3.99-.4-.727-.353-1.331-.917-1.731-1.619-.455-.798-.525-1.85-.665-3.954L6.666 8m6.667 6v6.667M18.667 14v6.667" />
        </symbol>
        <symbol id="icon-basket" viewBox="0 0 32 32">
            <path
                d="M25.333 9.333h-4V8c0-2.946-2.388-5.334-5.334-5.334S10.665 5.054 10.665 8v1.333h-4c-.736 0-1.333.597-1.333 1.333V25.334c0 2.209 1.791 4 4 4h13.333c2.209 0 4-1.791 4-4V10.668c0-.736-.597-1.334-1.333-1.334zM13.333 8c-.001-.019-.001-.042-.001-.065 0-1.473 1.194-2.667 2.667-2.667s2.667 1.194 2.667 2.667c0 .023 0 .046-.001.069v-.003 1.333h-5.333V8.001zM24 25.333v.002c0 .736-.597 1.333-1.333 1.333H9.332c-.736 0-1.333-.597-1.333-1.333V12h2.666v1.333c0 .737.597 1.334 1.334 1.334s1.334-.597 1.334-1.334V12h5.333v1.333c0 .737.597 1.334 1.334 1.334s1.334-.597 1.334-1.334V12h2.667v13.333z" />
        </symbol>
        <symbol id="icon-angle-down" viewBox="0 0 32 32">
            <path
                d="M15.053 17.867c.124.125.271.224.434.292s.337.103.513.103.35-.035.513-.103c.162-.068.31-.167.434-.292l6.107-6.12c.124-.125.271-.224.434-.292s.337-.103.513-.103.35.035.513.103.31.167.434.292c.248.25.388.588.388.94s-.139.69-.388.94l-6.12 6.12c-.75.749-1.767 1.17-2.827 1.17s-2.077-.421-2.827-1.17l-6.12-6.12c-.246-.248-.385-.584-.387-.933-.001-.175.033-.349.099-.512s.164-.31.288-.435c.124-.125.271-.224.434-.292s.337-.103.513-.103.35.035.513.103c.162.068.31.167.434.292l6.107 6.12z" />
        </symbol>
        <symbol id="icon-lock-02" viewBox="0 0 32 32">
            <path
                d="M14.751 2.963c-2.995 0.511-5.381 2.662-6.226 5.479l-0.014 0.056c-0.257 0.886-0.297 1.331-0.297 3.257v1.783l-0.36 0.034c-1.35 0.129-2.006 0.345-2.875 0.944-0.793 0.547-1.498 1.496-1.797 2.417-0.256 0.792-0.275 1.098-0.275 4.4 0 3.301 0.019 3.607 0.275 4.4 0.304 0.939 1.032 1.904 1.858 2.462 0.658 0.445 1.16 0.647 2 0.803 0.472 0.088 1.093 0.095 8.96 0.095s8.488-0.007 8.96-0.095c0.84-0.157 1.342-0.359 2-0.803 0.826-0.558 1.554-1.522 1.858-2.462 0.256-0.793 0.275-1.099 0.275-4.4 0-3.302-0.019-3.608-0.275-4.4-0.304-0.941-1.032-1.904-1.858-2.463-0.824-0.557-1.499-0.773-2.814-0.898l-0.36-0.034v-1.783c0-1.926-0.040-2.371-0.297-3.257-0.859-2.891-3.271-5.051-6.245-5.531l-0.045-0.006c-0.611-0.098-1.855-0.097-2.448 0.002zM17.12 5.262c1.75 0.345 3.32 1.665 3.997 3.36 0.363 0.909 0.399 1.194 0.401 3.165l0.002 1.734h-11.040l0.002-1.734c0.002-1.97 0.038-2.256 0.401-3.165 0.871-2.181 3.074-3.599 5.383-3.465 0.25 0.015 0.634 0.062 0.854 0.105zM23.605 15.838c0.511 0.027 1.061 0.087 1.253 0.136 0.855 0.221 1.616 0.982 1.835 1.835 0.247 0.96 0.247 6.089 0 7.048-0.219 0.854-0.981 1.615-1.835 1.835-0.601 0.155-2.011 0.185-8.857 0.185s-8.256-0.030-8.857-0.185c-0.855-0.221-1.616-0.982-1.835-1.835-0.248-0.96-0.247-6.090 0-7.048 0.221-0.856 0.979-1.614 1.839-1.838 0.191-0.049 0.683-0.107 1.094-0.129 1.091-0.057 14.294-0.062 15.365-0.005z">
            </path>
        </symbol>
        <symbol id="icon-mail-02" viewBox="0 0 32 32">
            <path
                d="M6.4 4.248c-0.475 0.049-1.258 0.195-1.51 0.282-0.931 0.32-1.833 0.997-2.374 1.782-0.501 0.726-0.687 1.19-0.861 2.142-0.104 0.568-0.107 0.799-0.106 7.36 0 6.487 0.016 7.271 0.161 8.026 0.262 1.261 0.984 2.319 1.98 3.012l0.016 0.010c0.658 0.445 1.16 0.646 2 0.802 0.474 0.089 1.15 0.095 10.294 0.095s9.819-0.006 10.294-0.095c0.869-0.162 1.357-0.362 2.061-0.848 0.981-0.701 1.681-1.741 1.93-2.946l0.005-0.031c0.145-0.755 0.161-1.539 0.161-8.026 0.001-6.561-0.002-6.792-0.106-7.36-0.127-0.694-0.222-1.007-0.439-1.44-0.378-0.759-0.918-1.394-1.551-1.831-0.682-0.47-1.173-0.677-2.008-0.845-0.417-0.085-1.216-0.093-10.106-0.101-5.31-0.005-9.737 0-9.84 0.010zM24.937 6.504c0.512 0.027 1.062 0.087 1.254 0.137 0.845 0.218 1.614 0.981 1.83 1.811 0.065 0.251 0.069 0.334 0.018 0.383-0.198 0.19-11.107 7.776-11.387 7.919-0.265 0.135-0.401 0.17-0.651 0.17s-0.386-0.035-0.651-0.17c-0.28-0.143-11.19-7.729-11.387-7.919-0.050-0.049-0.047-0.131 0.018-0.383 0.217-0.834 0.984-1.593 1.834-1.814 0.191-0.050 0.682-0.109 1.093-0.13 1.091-0.057 16.959-0.061 18.031-0.005zM7.097 13.826c1.77 1.24 3.216 2.273 3.211 2.298-0.005 0.024-1.456 1.351-3.225 2.949-3.099 2.799-3.218 2.899-3.25 2.755-0.051-0.229-0.053-10.255-0.001-10.255 0.025 0 1.495 1.014 3.265 2.253zM28.207 16.626c-0.003 2.779-0.022 5.121-0.040 5.202-0.032 0.144-0.151 0.043-3.25-2.755-1.769-1.598-3.221-2.925-3.225-2.949-0.008-0.048 6.4-4.551 6.477-4.551 0.025 0 0.042 2.273 0.039 5.053zM13.238 18.115c1.325 0.896 1.801 1.082 2.762 1.082 0.962 0 1.438-0.186 2.767-1.085 0.507-0.344 0.945-0.618 0.971-0.609s1.789 1.587 3.914 3.507l3.867 3.491-0.2 0.206c-0.306 0.3-0.686 0.525-1.111 0.646l-0.018 0.004c-0.615 0.159-2.048 0.185-10.191 0.185s-9.576-0.026-10.191-0.185c-0.443-0.125-0.823-0.35-1.13-0.651l0 0-0.2-0.206 3.88-3.504c2.134-1.928 3.897-3.505 3.919-3.505s0.453 0.28 0.959 0.622z">
            </path>
        </symbol>
    </defs>
</svg>