<?xml version="1.0" standalone="no"?>
<!DOCTYPE svg PUBLIC "-//W3C//DTD SVG 20010904//EN"
 "http://www.w3.org/TR/2001/REC-SVG-20010904/DTD/svg10.dtd">
<svg version="1.0" xmlns="http://www.w3.org/2000/svg"
 width="700.000000pt" height="700.000000pt" viewBox="0 0 700.000000 700.000000"
 preserveAspectRatio="xMidYMid meet">
<metadata>
Created by potrace 1.14, written by Peter Selinger 2001-2017
</metadata>
<g transform="translate(0.000000,700.000000) scale(0.100000,-0.100000)"
fill="#000000" stroke="none">
<path d="M2074 6715 c-148 -44 -234 -149 -349 -430 -39 -95 -123 -267 -134
-275 -4 -3 -25 -27 -46 -55 -22 -27 -46 -56 -53 -63 -6 -8 -27 -35 -45 -60
-30 -44 -32 -52 -29 -117 8 -227 6 -257 -25 -360 -43 -141 -116 -322 -182
-449 -46 -90 -71 -126 -140 -195 -93 -96 -132 -164 -125 -221 15 -132 12 -227
-11 -315 -25 -96 -85 -273 -116 -342 -11 -23 -19 -45 -19 -48 0 -27 -124 -252
-180 -327 -77 -103 -94 -144 -85 -215 15 -129 2 -202 -81 -429 -89 -247 -185
-437 -305 -605 -102 -143 -113 -178 -85 -284 8 -27 12 -59 11 -70 -2 -11 -6
-47 -9 -80 -6 -57 -12 -101 -21 -170 -3 -16 -13 -64 -24 -105 -22 -83 -22
-243 -2 -335 17 -75 69 -209 108 -278 159 -282 450 -513 738 -586 22 -5 54
-14 70 -18 47 -12 4101 -14 4160 -2 28 6 61 12 74 15 59 12 186 69 258 116
141 93 264 228 332 364 28 57 103 286 161 489 5 17 17 59 28 95 11 36 36 117
55 180 107 353 171 562 187 615 10 33 32 105 49 160 16 55 55 183 86 285 32
102 68 221 81 265 12 44 32 109 44 145 11 36 22 72 24 80 2 8 29 98 61 200 31
102 58 192 60 200 2 8 24 80 49 160 24 80 80 264 124 410 44 146 99 326 122
400 38 121 82 272 96 325 13 52 12 204 -1 264 -41 175 -162 315 -335 387 -3 1
-5 -25 -5 -59 0 -34 -5 -89 -11 -122 -9 -49 -163 -568 -194 -655 -4 -14 -16
-52 -26 -85 -9 -33 -23 -80 -31 -105 -8 -25 -16 -52 -18 -60 -3 -13 -95 -314
-196 -645 -34 -111 -39 -125 -73 -240 -29 -94 -79 -259 -135 -440 -45 -147
-288 -947 -361 -1190 -230 -760 -242 -798 -260 -835 -25 -49 -85 -104 -147
-135 -118 -59 30 -55 -2178 -54 -1182 0 -2053 4 -2085 9 -30 5 -68 12 -85 14
-212 34 -382 212 -368 386 2 36 10 51 37 77 19 17 52 36 73 42 25 7 674 10
1943 11 2021 0 2009 0 2146 46 224 76 323 240 504 839 29 94 74 242 100 330
27 88 81 266 120 395 39 129 76 251 82 270 5 19 41 139 80 265 38 127 82 273
98 325 15 52 51 170 79 263 160 524 205 675 221 732 4 17 19 66 33 110 14 44
76 247 137 450 61 204 127 422 147 485 51 169 57 203 56 312 -3 212 -134 416
-325 503 -124 57 -52 55 -1838 54 -1549 0 -1650 -1 -1738 -18 -51 -10 -95 -15
-97 -11 -13 20 -206 31 -261 15z m3159 -1065 c40 0 54 -5 77 -29 38 -37 35
-64 -24 -244 -58 -174 -66 -189 -124 -229 l-47 -33 -1316 0 c-1428 0 -1355 -3
-1379 55 -14 33 -5 71 55 249 44 133 62 163 120 204 30 22 35 22 645 27 476 4
1518 4 1993 0z m-287 -1087 c28 -16 47 -63 41 -99 -9 -49 -95 -305 -111 -330
-25 -37 -58 -65 -96 -81 -31 -14 -200 -15 -1341 -15 -968 -1 -1311 2 -1327 11
-30 16 -52 63 -46 97 2 16 27 97 55 181 54 164 77 200 149 232 34 15 139 17
1346 16 988 0 1314 -3 1330 -12z"/>
</g>
</svg>
